<svg xmlns="http://www.w3.org/2000/svg" viewBox="0 0 32 32">
  <defs>
    <linearGradient id="grad" x1="0%" y1="0%" x2="100%" y2="100%">
      <stop offset="0%" style="stop-color:#37A7E7;stop-opacity:1" />
      <stop offset="100%" style="stop-color:#0E1F2F;stop-opacity:1" />
    </linearGradient>
  </defs>

  <!-- Background rounded square -->
  <rect x="1" y="1" width="30" height="30" rx="6" fill="url(#grad)"/>

  <!-- Grid lines (matrix pattern) -->
  <path d="M8 3 L8 29 M24 3 L24 29 M3 8 L29 8 M3 24 L29 24"
        stroke="rgba(255,255,255,0.15)" stroke-width="1" fill="none"/>

  <!-- Node circles at intersections (coordination points) -->
  <circle cx="8" cy="8" r="3.5" fill="#fff"/>
  <circle cx="24" cy="8" r="3.5" fill="#fff"/>
  <circle cx="8" cy="24" r="3.5" fill="#fff"/>
  <circle cx="24" cy="24" r="3.5" fill="#fff"/>
  <circle cx="16" cy="16" r="4.5" fill="#6ABFF0"/>

  <!-- Connection lines between nodes (workflow connections) -->
  <path d="M8 8 L16 16 M24 8 L16 16 M8 24 L16 16 M24 24 L16 16"
        stroke="rgba(255,255,255,0.6)" stroke-width="1.5" fill="none"/>

  <!-- Diagonal connections (cross-coordination) -->
  <path d="M8 8 L24 24 M24 8 L8 24"
        stroke="rgba(106,191,240,0.4)" stroke-width="1" fill="none" stroke-dasharray="2,2"/>
</svg>
